<svg xmlns="http://www.w3.org/2000/svg" viewBox="0 0 104.41 104.41"><defs><style>.cls-1{fill:#fff;}.cls-2{fill:#fa9d1e;}.cls-3{fill:#099;}</style></defs><title>Asset 20</title><g id="Layer_2" data-name="Layer 2"><g id="Layer_1-2" data-name="Layer 1"><path class="cls-1" d="M104.41,52.2A52.21,52.21,0,1,1,52.2,0a52.2,52.2,0,0,1,52.21,52.2"/><path class="cls-2" d="M9.13,58.36a45.17,45.17,0,0,0,86.14,0h0a44.63,44.63,0,0,0,.43-6.15,43.51,43.51,0,1,0-87,0,44.63,44.63,0,0,0,.43,6.15Z"/><path d="M84.5,48.16c-.35-1.14-.64-2.23-1-3.34a66.17,66.17,0,0,1,14.81,1.7c-.11-.85-.23-1.69-.38-2.52a64.42,64.42,0,0,0-17.22-6c-.53-1.19-1.15-2.29-1.77-3.44A65.18,65.18,0,0,1,96.38,38c-.24-.74-.49-1.46-.76-2.18A61,61,0,0,0,75.43,25.58c-.63.4-1.2.73-1.73,1.13a60.53,60.53,0,0,0-5-5.85c-11.09-3.07-28.36-2.93-40.9,3.67L29,25.94c-6.39,2-15.12,5.68-20.09,9.54-.29.74-.56,1.49-.8,2.25,6-2.08,19.72-4.45,27.84-3.7l3,3.55a51.42,51.42,0,0,1,19.59-2l1.32,1.76a50.29,50.29,0,0,0-22.58,5l-4.67-5.43A64.46,64.46,0,0,0,6.58,43.78Q6.34,45,6.19,46.27a63.72,63.72,0,0,1,22-1.48L38,54.56c-1.34.1-3,.3-4.26.51l-7.44-7.43A57,57,0,0,0,5.81,52.07v0c0,.61,0,1.22,0,1.83a58.66,58.66,0,0,1,6.93-.37c1.86,0,3.67.1,5.49.23.89.09,1.81.19,2.7.32s1.59.22,2.39.36L25.87,57A49.33,49.33,0,0,0,18.73,60a18.68,18.68,0,0,0,.92,2.16,49.19,49.19,0,0,1,10-1.43l18.2,18.17-.15,3.48-.33,7.23a44.77,44.77,0,0,0,9.45,0l-.66-19.52,8.87-9,8.87-8.8a43.26,43.26,0,0,1,4.27,2.75,64.9,64.9,0,0,1,13.46-1.36,62.9,62.9,0,0,1,6.92.4c0-.6,0-1,0-1.85A63.7,63.7,0,0,0,84.5,48.16M48.07,75.44,33.35,60.84A47.43,47.43,0,0,1,46.42,62.9L48.51,65ZM55,67.73l-6.1-6.05a46.34,46.34,0,0,0-1.55-7.09,48.58,48.58,0,0,0-5.81-.18l-4.64-4.63c4.21-2.53,10.71-4,15.65-4.16L64.81,57.8ZM66.63,56,58.2,47.6A31.31,31.31,0,0,1,71.54,51Z"/><path class="cls-3" d="M95.27,58.36a45.17,45.17,0,0,1-86.14,0l-3-.35a46.41,46.41,0,0,0,92.09,0Z"/></g></g></svg>